# xmcd
#
# Track frame offsets:
#	150
#	7532
#	21815
#	33415
#	56062
#	82250
#	89752
#	106400
#	123450
#
# Disc length: 2252 seconds
#
# Revision: 1
# Processed by: cddbd v1.5.2PL0 Copyright (c) Steve Scherf et al.
# Submitted via: audiograbber 1.83.01
#
DISCID=6d08ca09
DTITLE=Nitty Gritty Dirt Band, The - Alive!
DYEAR=1969
DGENRE=Country
TTITLE0=Crazy words, crazy tunes
TTITLE1=Buy for me the rain
TTITLE2=Candy man
TTITLE3=Foggy mountain breakdown
TTITLE4=Rock me baby
TTITLE5=Fat boys (can make it in Santa Monica)
TTITLE6=Alligator man
TTITLE7=Crazy words, crazy tunes
TTITLE8=Good-night, my love, pleasnt dreams
EXTD=
EXTT0=
EXTT1=
EXTT2=
EXTT3=
EXTT4=
EXTT5=
EXTT6=
EXTT7=
EXTT8=
PLAYORDER=
